<?xml version="1.0" encoding="UTF-8" standalone="no"?><!-- Generator: Gravit.io --><svg xmlns="http://www.w3.org/2000/svg" xmlns:xlink="http://www.w3.org/1999/xlink" style="isolation:isolate" viewBox="0 0 15 12.508" width="15pt" height="12.508pt"><defs><clipPath id="_clipPath_zSFckG4dZzhDdSv2264IKAcIUdU045VP"><rect width="15" height="12.508"/></clipPath></defs><g clip-path="url(#_clipPath_zSFckG4dZzhDdSv2264IKAcIUdU045VP)"><g><path d=" M 7.5 10.961 C 5.964 10.961 4.463 10.538 3.159 9.739 C 1.893 8.962 0.855 7.859 0.157 6.55 L 0 6.254 L 0.157 5.959 C 0.855 4.649 1.893 3.546 3.159 2.769 C 4.463 1.97 5.964 1.547 7.5 1.547 C 9.036 1.547 10.537 1.97 11.841 2.769 C 13.107 3.546 14.145 4.649 14.843 5.959 L 15 6.254 L 14.843 6.55 C 14.145 7.859 13.107 8.962 11.841 9.739 C 10.537 10.538 9.036 10.961 7.5 10.961 Z " fill="rgb(255,255,255)"/><path d=" M 10.754 6.254 C 10.754 8.051 9.297 9.508 7.5 9.508 C 5.703 9.508 4.246 8.051 4.246 6.254 C 4.246 4.457 5.703 3 7.5 3 C 9.297 3 10.754 4.457 10.754 6.254 Z " fill="none" vector-effect="non-scaling-stroke" stroke-width="2" stroke="rgb(17,34,42)" stroke-linejoin="miter" stroke-linecap="square" stroke-miterlimit="3"/></g></g></svg>